<?xml version="1.0" encoding="utf-8"?>
<!-- Generator: Adobe Illustrator 18.1.1, SVG Export Plug-In . SVG Version: 6.00 Build 0)  -->
<svg version="1.1" id="Layer_1" xmlns="http://www.w3.org/2000/svg" xmlns:xlink="http://www.w3.org/1999/xlink" x="0px" y="0px"
	 viewBox="0 0 500 500" enable-background="new 0 0 500 500" xml:space="preserve">
<path fill-rule="evenodd" clip-rule="evenodd" fill="#231F20" d="M285.7,269.6c0,1.8-2.3,3.3-5.2,3.3c-2.9,0-5.2-1.5-5.2-3.3
	c0-1.8,2.3-3.2,5.2-3.2C283.4,266.4,285.7,267.8,285.7,269.6z"/>
<path fill-rule="evenodd" clip-rule="evenodd" fill="#231F20" d="M280.6,266.4c-2.9,0-5.2,1.4-5.2,3.2c0,1.8,2.3,3.3,5.2,3.3
	c2.9,0,5.2-1.5,5.2-3.3C285.7,267.8,283.4,266.4,280.6,266.4z"/>
<path fill-rule="evenodd" clip-rule="evenodd" fill="#231F20" d="M280.6,266.4c-2.9,0-5.2,1.4-5.2,3.2c0,1.8,2.3,3.3,5.2,3.3
	c2.9,0,5.2-1.5,5.2-3.3C285.7,267.8,283.4,266.4,280.6,266.4z M280.6,266.4c-2.9,0-5.2,1.4-5.2,3.2c0,1.8,2.3,3.3,5.2,3.3
	c2.9,0,5.2-1.5,5.2-3.3C285.7,267.8,283.4,266.4,280.6,266.4z M280.6,266.4c-2.9,0-5.2,1.4-5.2,3.2c0,1.8,2.3,3.3,5.2,3.3
	c2.9,0,5.2-1.5,5.2-3.3C285.7,267.8,283.4,266.4,280.6,266.4z M280.6,266.4c-2.9,0-5.2,1.4-5.2,3.2c0,1.8,2.3,3.3,5.2,3.3
	c2.9,0,5.2-1.5,5.2-3.3C285.7,267.8,283.4,266.4,280.6,266.4z M280.6,266.4c-2.9,0-5.2,1.4-5.2,3.2c0,1.8,2.3,3.3,5.2,3.3
	c2.9,0,5.2-1.5,5.2-3.3C285.7,267.8,283.4,266.4,280.6,266.4z M280.6,266.4c-2.9,0-5.2,1.4-5.2,3.2c0,1.8,2.3,3.3,5.2,3.3
	c2.9,0,5.2-1.5,5.2-3.3C285.7,267.8,283.4,266.4,280.6,266.4z M450.2,220.4c0-1.6,0.1-3.3,0.1-4.9c0-110.6-89.7-200.3-200.3-200.3
	c-110.6,0-200.3,89.7-200.3,200.3c0,94.9,66.1,174.4,154.7,195.1c38.2,15.4,36.6,46.5,37.5,57.3c3.8,5.6,7.6,11.3,11.4,16.9v-80.4
	l10.1-0.6l2.1,12.1l34.3-5.7l-2-11.8c7.8-2,15.4-4.6,22.8-7.5l5.5,10.5l30.9-16l-5.4-10.4c6.8-4.3,13.3-9.1,19.4-14.2l8.3,8.2
	l24.4-24.8l-8.2-8c5.1-6.2,9.9-12.7,14.2-19.6l10.1,5l15.5-31.1l-9.8-4.9c3-7.5,5.5-15.2,7.5-23.2l10.6,1.6l5.2-36.9l-10.4-1
	l0.1-5.5L450.2,220.4z M398.6,98.7c-4.4,3-9.1,5.9-14.1,8.7c-13.2,7.3-28.4,13.5-45,18.4c-2.8-9.1-6-17.7-9.8-25.5
	c-8.2-17.2-18.9-31.1-32.3-40.6c12.3-3.6,23.8-8.6,34.2-14.6C357.9,57.6,380.7,76.1,398.6,98.7z M247.4,219.6c0,0,44.1-0.7,44.3,0
	c-26.3,3.8-37.8,20.5-37.8,20.5C254.2,228.1,254.7,222.7,247.4,219.6z M255.2,210.5v-60.8c27-0.4,52.7-3.8,76-9.6
	c5.2,21,8,44.8,8.9,70.3H255.2z M255.2,138V66.3c8.8-0.3,17.4-1.2,25.8-2.7c16.4,7.9,28.9,22.4,38.1,41.7c3.5,7.2,6.5,15.1,9.1,23.6
	C305.7,134.4,281.1,137.6,255.2,138z M250,26.5c23.9,0,46.8,4.5,67.8,12.6c-12.3,6.1-25.9,10.7-40.6,13.2h0l-0.2,0
	c-0.7,0.1-1.3,0.2-2,0.3h0l-1,0.2l-0.1,0l-0.8,0.1h-0.1l-0.2,0l-0.3,0l-0.5,0.1l-0.3,0.1l-0.2,0l-0.5,0.1l-0.5,0.1l0,0l-0.5,0.1
	l-0.5,0.1l-0.1,0l-0.4,0.1l-0.5,0.1h0l-0.5,0.1c-1.3,0.2-2.6,0.3-3.9,0.4l-0.5,0l-0.1,0l-0.5,0l-0.3,0l-0.7,0.1
	c-0.5,0-1.1,0.1-1.6,0.1h0c-0.6,0-1.2,0.1-1.8,0.1l-0.5,0h0l-0.3,0l-0.5,0l-0.3,0h-0.2l-0.1,0l-0.8,0h-0.2l-0.7,0l-0.7,0h-0.2
	l-0.5,0l-0.2,0h-0.6l-0.8,0l-0.5,0H250v0h0v0h-1.6l-0.5,0h-0.6l-0.8,0l-0.2,0l-0.9,0h-0.1l-0.1,0h-0.1l-0.9,0h-0.1l-0.9,0H243
	l-0.3,0l-0.5,0l-0.3,0h0l-0.5,0c-0.6,0-1.2-0.1-1.7-0.1h0l-1.6-0.1l-0.7-0.1l-0.3,0l-0.5,0l-0.1,0l-0.5,0c-1.3-0.1-2.7-0.2-4-0.4
	l-0.3,0l-0.2,0l-0.5-0.1l-0.4-0.1h-0.1l-0.5-0.1l-0.5-0.1l0,0l-0.5-0.1l-0.5-0.1l-0.1,0l-0.4-0.1l-0.7-0.1h0l-0.2,0
	c-0.7-0.1-1.3-0.2-2-0.3h0l-1-0.2l-0.1,0l-0.7-0.1l-0.6-0.1l-0.1,0l-0.5-0.1l-0.3-0.1l-1.1-0.2h-0.1l-0.5-0.1
	c-13.6-2.6-26.4-6.9-37.9-12.7C203.2,31,226.1,26.5,250,26.5z M171.9,128.8c2.6-8.5,5.6-16.3,9.1-23.6c9.2-19.2,21.7-33.7,38.1-41.7
	c7.9,1.4,16,2.3,24.3,2.7v71.7C218,137.5,193.8,134.2,171.9,128.8z M243.4,149.7v60.8h-83.5c0.9-25.5,3.7-49.3,8.9-70.3
	C191.7,145.9,216.9,149.2,243.4,149.7z M168.4,45c10.4,6.1,21.9,11.1,34.2,14.6c-13.4,9.5-24,23.4-32.2,40.6
	c-3.8,7.8-7,16.4-9.8,25.5c-16.7-4.9-31.8-11.1-45-18.4c-5-2.8-9.7-5.7-14.1-8.7C119.3,76.1,142.1,57.6,168.4,45z M94.4,108.2
	c4.8,3.3,9.9,6.5,15.4,9.5c14,7.7,30,14.3,47.6,19.4c-5.4,22-8.4,46.9-9.3,73.4h-87C62.1,172.6,74.2,137.4,94.4,108.2z M242.4,435.6
	c-4.6-25.3-18.1-32.6-26.9-34.2C137.8,387,76.8,325.2,63.7,247.2c5.9,5.4,12.3,10.1,19.2,13.9c19.4,71.2,83,124.2,159.5,127.5V435.6
	z M242.4,325.4v38.3c0,0,0,0,0,0v11.8c-66.7-3.1-122.8-47.1-143.7-107.4c4,1.3,8.5,2.3,13.4,2.2c6.4-0.1,13.7-2.1,22.3-7.4
	c-9.1,0.3-17.7-0.7-25.9-2.9c-4.7-1.2-9.2-2.8-13.6-4.7c-5.3-2.3-10.4-5.2-15.2-8.4c-6.4-4.4-12.4-9.5-17.9-15.3
	c-0.1-1.1-0.2-2.2-0.3-3.3h181v34.2h35.9v0c11.3,0,10.6,6.9,12.5,15.1c5.9,0.7,11.9,1.1,17.6,2.8
	C285.2,282.2,242.4,295.3,242.4,325.4z M254.2,363.8v-38.4c0-27.8,57.8-38.9,81.8-30.5c-5.3-10.4-9.4-20.1-21.2-24.7
	c-4.5-1.8-9.2-2.6-14.1-3.3c-1.2-7.3-4.2-16.2-22.4-16.2l-20.7,0c6.2-14.4,24.5-22.4,38.6-22.3h101.5
	C391.4,302.9,329.9,361.7,254.2,363.8z M351.9,210.5c-0.9-26.5-3.9-51.4-9.3-73.4c17.6-5.1,33.6-11.7,47.6-19.4
	c5.5-3,10.6-6.2,15.4-9.5c20.2,29.2,32.4,64.4,33.4,102.3H351.9z M280.6,266.4c-2.9,0-5.2,1.4-5.2,3.2c0,1.8,2.3,3.3,5.2,3.3
	c2.9,0,5.2-1.5,5.2-3.3C285.7,267.8,283.4,266.4,280.6,266.4z M280.6,266.4c-2.9,0-5.2,1.4-5.2,3.2c0,1.8,2.3,3.3,5.2,3.3
	c2.9,0,5.2-1.5,5.2-3.3C285.7,267.8,283.4,266.4,280.6,266.4z M280.6,266.4c-2.9,0-5.2,1.4-5.2,3.2c0,1.8,2.3,3.3,5.2,3.3
	c2.9,0,5.2-1.5,5.2-3.3C285.7,267.8,283.4,266.4,280.6,266.4z M280.6,266.4c-2.9,0-5.2,1.4-5.2,3.2c0,1.8,2.3,3.3,5.2,3.3
	c2.9,0,5.2-1.5,5.2-3.3C285.7,267.8,283.4,266.4,280.6,266.4z M280.6,266.4c-2.9,0-5.2,1.4-5.2,3.2c0,1.8,2.3,3.3,5.2,3.3
	c2.9,0,5.2-1.5,5.2-3.3C285.7,267.8,283.4,266.4,280.6,266.4z M280.6,266.4c-2.9,0-5.2,1.4-5.2,3.2c0,1.8,2.3,3.3,5.2,3.3
	c2.9,0,5.2-1.5,5.2-3.3C285.7,267.8,283.4,266.4,280.6,266.4z M280.6,266.4c-2.9,0-5.2,1.4-5.2,3.2c0,1.8,2.3,3.3,5.2,3.3
	c2.9,0,5.2-1.5,5.2-3.3C285.7,267.8,283.4,266.4,280.6,266.4z"/>
</svg>
